<svg xmlns="http://www.w3.org/2000/svg" width="425.277" height="0.665" viewBox="0 0 425.277 0.665"><g id="レイヤー_2" data-name="レイヤー 2"><g id="レイヤー_1-2" data-name="レイヤー 1"><path d="M682.165,598.25c-.105-.121-5.415.285-5.128-.25C676.881,597.634,683.1,597.272,682.165,598.25Zm-15.007,0c-.1-.121-5.413.285-5.126-.25C661.876,597.634,668.09,597.272,667.158,598.25Zm-15,0c-.1-.121-5.414.285-5.127-.25C646.871,597.634,653.086,597.272,652.154,598.25Zm-15,0c-.105-.121-5.414.285-5.127-.25C631.869,597.634,638.083,597.272,637.152,598.25Zm-15,0c-.105-.121-5.414.285-5.127-.25C616.866,597.634,623.08,597.272,622.149,598.25Zm-15,0c-.1-.121-5.414.285-5.126-.25C601.864,597.634,608.077,597.272,607.146,598.25Zm-15,0c-.105-.121-5.413.285-5.125-.25C586.862,597.634,593.074,597.272,592.143,598.25Zm-15,0c-.105-.121-5.414.285-5.126-.25C571.86,597.634,578.073,597.272,577.142,598.25Zm-15,0c-.105-.121-5.414.285-5.126-.25C556.859,597.634,563.072,597.272,562.141,598.25Zm-15,0c-.1-.121-5.412.285-5.125-.25C541.856,597.634,548.068,597.272,547.137,598.25Zm-15,0c-.105-.121-5.412.285-5.125-.25C526.855,597.634,533.067,597.272,532.136,598.25Zm-15,0c-.105-.121-5.412.285-5.125-.25C511.854,597.634,518.066,597.272,517.135,598.25Zm-15,0c-.105-.121-5.413.285-5.126-.25C496.852,597.634,503.065,597.272,502.134,598.25Zm-15,0c-.105-.121-5.412.285-5.125-.25C481.851,597.634,488.063,597.272,487.132,598.25Zm-15,0c-.1-.121-5.412.285-5.125-.25C466.85,597.634,473.062,597.272,472.131,598.25Zm-15,0c-.105-.121-5.412.285-5.125-.25C451.849,597.634,458.061,597.272,457.13,598.25Zm-15,0c-.105-.121-5.412.285-5.125-.25C436.848,597.634,443.06,597.272,442.129,598.25Zm-15,0c-.1-.121-5.412.285-5.126-.25C421.847,597.634,428.059,597.272,427.128,598.25Zm-15,0c-.1-.121-5.413.285-5.126-.25C406.846,597.634,413.059,597.272,412.128,598.25Zm-15,0c-.105-.121-5.413.285-5.126-.25C391.845,597.634,398.058,597.272,397.127,598.25Zm-15,0c-.1-.121-5.413.285-5.126-.25C376.844,597.634,383.057,597.272,382.126,598.25Zm-15,0c-.105-.121-5.412.285-5.125-.25C361.843,597.634,368.055,597.272,367.124,598.25Zm-15,0c-.105-.121-5.412.285-5.125-.25C346.843,597.634,353.055,597.272,352.124,598.25Zm-15,0c-.105-.121-5.412.285-5.125-.25C331.842,597.634,338.054,597.272,337.123,598.25Zm-15,0c-.105-.121-5.412.285-5.125-.25C316.841,597.634,323.053,597.272,322.122,598.25Zm-15,0c-.1-.121-5.412.285-5.125-.25C301.84,597.634,308.052,597.272,307.121,598.25Zm-15,0c-.1-.121-5.412.285-5.125-.25C286.84,597.634,293.052,597.272,292.121,598.25Zm-15,0c-.105-.121-5.412.285-5.125-.25C271.839,597.634,278.051,597.272,277.12,598.25Zm-15,0c-.105-.121-5.412.285-5.125-.25C256.838,597.634,263.05,597.272,262.119,598.25Z" transform="translate(-256.983 -597.62)"/></g></g></svg>