<svg xmlns="http://www.w3.org/2000/svg" width="81.682" height="116.005" viewBox="0 0 81.682 116.005"><g id="レイヤー_2" data-name="レイヤー 2"><g id="レイヤー_1-2" data-name="レイヤー 1"><path d="M22.022,107.4a2.053,2.053,0,0,1-2.05-2.05V58.835a20.86,20.86,0,1,1,41.72-.15v46.66a2.053,2.053,0,0,1-2.05,2.05Z" fill="#918dd7"/><path d="M19.962,58.845a20.86,20.86,0,1,1,41.72-.15Z" fill="#f2d83a"/><rect x="19.962" y="57.655" width="41.72" height="13.36" fill="#fff"/><line x1="13.892" y1="56.745" x2="67.762" y2="56.745" fill="none"/><line x1="13.892" y1="71.325" x2="67.762" y2="71.325" fill="none"/><path d="M77.362,25.535c-.69-.46-1.43-.83-2.11-1.3-.46-.32-.96-.6-1.44-.89-1.24-.74-2.48-1.44-3.72-2.12a10.714,10.714,0,0,0,2.07-2.17,11.57,11.57,0,0,0,2.07-6.63,12.415,12.415,0,0,0-1.72-6.19,12.275,12.275,0,0,0-4.43-4.35A14.643,14.643,0,0,0,57.612.355a22.015,22.015,0,0,0-8.25,3.85c-.87.65-2.01,1.44-3.08,2.32-.46.36-.93.76-1.43,1.22a5.65,5.65,0,0,0-8.04,0,18.659,18.659,0,0,0-1.43-1.22c-1.08-.89-2.21-1.67-3.08-2.32a21.862,21.862,0,0,0-8.25-3.85,14.643,14.643,0,0,0-10.47,1.53,12.2,12.2,0,0,0-4.43,4.35,12.415,12.415,0,0,0-1.72,6.19,11.57,11.57,0,0,0,2.07,6.63,10.982,10.982,0,0,0,2.07,2.17c-1.25.67-2.49,1.38-3.72,2.12-.48.29-.98.56-1.44.89-.68.47-1.42.83-2.11,1.3-2.15,1.48-4.49,3.57-4.29,6.44.23,3.28,3.33,4.21,6.08,4.39a5.255,5.255,0,0,0,4.38-1.73,145,145,0,0,1,10.56-10.4,23.956,23.956,0,0,0,3.48-.36,24.335,24.335,0,0,0,8.29-3.2c.63-.38,1.24-.78,1.83-1.22l.78-.59.86-.67a12.806,12.806,0,0,0,1.1-.98,5.581,5.581,0,0,0,6.94,0c.39.39.76.7,1.1.98l.86.67.78.59c.59.44,1.2.83,1.83,1.22a24.541,24.541,0,0,0,8.29,3.2,23.956,23.956,0,0,0,3.48.36,147.078,147.078,0,0,1,10.56,10.4,5.237,5.237,0,0,0,4.38,1.73c2.76-.19,5.85-1.11,6.08-4.39C81.852,29.1,79.512,27.015,77.362,25.535Zm-46.7-13.02-.33.17c-.43.22-.87.41-1.32.59a14.837,14.837,0,0,1-5.53.94,8.635,8.635,0,0,1-4.32-1.01c-.39-.25-.46-.46-.45-.5.05.02.02,0,.05-.21a2.092,2.092,0,0,1,.14-.74,2.01,2.01,0,0,1,.54-.83,5.393,5.393,0,0,1,3.44-1.39,10.288,10.288,0,0,1,5.18,1.31c1.11.59,2,1.04,2.84,1.53Zm21.98.76c-.44-.18-.89-.37-1.32-.59l-.33-.17-.25-.14c.84-.49,1.73-.94,2.84-1.53a10.312,10.312,0,0,1,5.18-1.31,5.393,5.393,0,0,1,3.44,1.39,1.909,1.909,0,0,1,.54.83,1.859,1.859,0,0,1,.14.74c.03.21,0,.23.05.21.02.04-.05.25-.45.5a8.743,8.743,0,0,1-4.32,1.01A14.786,14.786,0,0,1,52.642,13.275Z"/><path d="M40.832,25.825a32.86,32.86,0,0,0-32.87,32.86v47.79a9.558,9.558,0,0,0,9.52,9.53h45.66a10.854,10.854,0,0,0,10.53-9.5V58.685A32.847,32.847,0,0,0,40.832,25.825Zm0,12A20.9,20.9,0,0,1,60.752,52.5H20.942A20.848,20.848,0,0,1,40.832,37.825Zm20.85,67.52a2.053,2.053,0,0,1-2.05,2.05H22.012a2.053,2.053,0,0,1-2.05-2.05V75.585h41.72Zm0-38.27H19.962V61h41.72Z"/></g></g></svg>