<svg xmlns="http://www.w3.org/2000/svg" width="600" height="314" viewBox="0 0 600 314" xml:space="preserve"><path fill="#FBF1FF" d="M0 0h600v314H0z"/><path d="M599 1v312H1V1h598m1-1H0v314h600V0z"/><path fill="#918DD7" d="M37.47 298.108c-3.6 2.394-14.932 3.335-12.661-3.914 3.17.591 9.516.856 12.584-.256l.077 4.17z"/><path fill="#918DD7" d="M37.759 298.02c.243.883-4.948 1.5-5.35 1.771-.445-5.981-.094-4.924 5.273-5.941l.077 4.17z"/><path fill="#F2D83A" d="M37.393 293.937c-3.9 1.98-19.431.549-8.827-3.657 3.242-.473 8.819-1.401 8.827 3.657z"/><path fill="#231815" d="M50.548 276.822c-1.007.65-.717.4-.312-.153 2.673-5.631-5-1.153-1.273.471.379 6.76 7.062-1.84 1.585-.318zm-.928-.682c-.648.474-1.1-.483-.471-.85.708-.515 1.116.537.471.85zm2.015 2.016c-.667.947-2.3.846-.921-.419.486-.524 1.451-.401.921.419z"/><path fill="#231815" d="M53.055 272.151c-2.181.87-.823 4.623 1.407 3.583 2.199-.862.794-4.605-1.407-3.583zm.389 2.733c-.882-.388-.747-1.982.3-1.963 1.326.034 1.118 2.488-.3 1.963z"/><path fill="#231815" d="M59.094 272.7c-.456.536-1.475 1.468-1.906.2 1.994-.33 2.841-.929 1.507-2.126-2.99-1.474-3.414 4.331-.355 3.636 1.017-.147 1.992-1.61.754-1.71zm-.744-.972a35.4 35.4 0 0 1-1.26.324c-.047-.481 1.21-.881 1.26-.325v.001zM63.657 271.083c-1.433-3.393-4.72.6-2.457 2.721 1.279-.413-.575-2.789 1.079-3 .825.08.433 1.823.6 2.375 1.141 1.65.944-1.545.778-2.096zM67.075 269.923a1.429 1.429 0 0 0-.888.207c.423-7.176-2.629 4.776-.3 3.247 2.49 1.899 4.113-3.151 1.188-3.454zm.675 1.994a.856.856 0 1 1-1.688-.154.856.856 0 1 1 1.688.154z"/><path fill="#231815" d="M71.949 273.069c1.837-3.766-4.276-2.231-1.549-1.49.175-.251 1.165-.112.856.4-5.718-.118 1.811 5.173.693 1.09zm-.85-.244c.08.716-1.08.932-1.128.217.046-.293.77-.263 1.128-.217zM76.755 273.267c.477-1.395-2.479-.068-2.164-.255-.087-.311 1.942-3.266.269-3.031-.255 1.007-2.946 5.025-1.275 5.292 1.227-2.73.593-.012 1.631.861 2.123-.556-1.635-2.148 1.539-2.867z"/><path fill="#231815" d="M79.378 274.167c-2.083-1.361-3.926 2.173-1.88 3.327 2.073 1.375 3.902-2.172 1.88-3.327zm-.445.787c1.008.582.019 2.42-.983 1.74-1.016-.584-.05-2.411.983-1.74z"/><path fill="#918DD7" d="M95.56 302.069c-1.612-3.022 1.261-12.708 4.283-5.59-.372 4.647 1.837 6.147-4.283 5.59z"/><path fill="#F2D83A" d="M95.338 296.5a2.253 2.253 0 1 1 4.5-.017l-4.5.017z"/><path fill="#FFF" d="M95.338 296.361c1.23.339 5.416-1.08 4.5 1.533-1.227-.34-5.413 1.079-4.5-1.533z"/><path fill="none" d="M94.683 296.256h5.814M94.683 297.929h5.814"/><path fill="#918DD7" d="M56.693 282.42c1.4-.022 1.4 2.318 0 2.3-1.4.018-1.4-2.32 0-2.3z"/><path d="M56.693 285.138c-1.915.029-1.915-3.169 0-3.14 1.915-.029 1.915 3.17 0 3.14zm0-2.294c-.883-.014-.883 1.462 0 1.448.883.014.883-1.462 0-1.448z"/><path fill="#F2D83A" d="M60.657 282.42c1.4-.022 1.4 2.318 0 2.3-1.401.018-1.401-2.32 0-2.3z"/><path d="M60.657 285.138c-1.915.029-1.915-3.169 0-3.14 1.914-.029 1.914 3.17 0 3.14zm0-2.294c-.884-.014-.884 1.462 0 1.448.883.014.883-1.462 0-1.448zM57 285.922c-1.155 1.272-11.149-.479-11.87 1.134-.334 1.3 9.16.357 9.637.629-.091 1.309-3.868 5.307.13 3.258.784-1.375 5.561-4.143 2.103-5.021zM56.961 300.058c-4.98.519-9.483 1.326-11.584-2.922-5.102 4.411 13.589 7.103 11.584 2.922zM85.3 297.832c-.344.538-1.862.969-1.666 1.64 1.29 1.89 4.366-2.395 1.666-1.64zM92.167 298.75c-.871-.283-1.386-1.4-2.221-.875-1.166 1.306 2.719 2.785 2.221.875z"/><path d="M92.29 293.394c-.8-2.781-1.934.578-3.249.131.262-3.875-2.12-4.415-1.728-.109-3.354-.082-4.107 1.3-.1 1.071.636.668-.852 8.717.9 8.591 1.8.157.285-7.922.926-8.59.915-.115 3.314.512 3.251-1.094z"/><path d="M92.018 285.6c-.66.741-3.617 1.054-4.561.677 1.171-5.192-2.229.534-3.33 2.492.216 1.293 2.105-.439 2.651-1.333.092-.125 1.436-.18 1.48.022-.3 2.627 1.917 2.16 1.727-.11 1.239.397 4.466-.585 2.033-1.748zM101.128 285.6c-.653.744-3.519 1.06-4.479.677 1.216-5.182-2.241.52-3.308 2.492.633 1.876 2.71-2.5 4.111-1.311-.506 2.3 2.13 2.311 1.625 0 1.041.063 4.672-.523 2.051-1.858zM76.323 294.817c-1.239 1.8 1.786 6.467-1.895 6.194.2-.025 2.55 2.668 2.651 1.946.084-1.378 1.493-7.435-.756-8.14z"/><path d="M75.225 299.361c.582-1.925-2.328-.144-2.672.55.567 1.551 2.035.352 2.672-.55zM81.123 299.845a6.118 6.118 0 0 1-1.7-1c-3.07-.445 2.11 4.172 1.7 1zM80.729 290.182c-4.294 4.628 1.3-8.161-3.146-5.2-.33.181-6.933-.62-4.621.984 1.919.313 5.467-1.225 4.559 2.229-.452.124-6.615-.555-4.171 1.107 1.823.318 4.9-1.181 4.172 1.992-.316.515-6.747-.529-6.595.59-.231.994 5.317.272 5.68.481-8.109 1.583 1.677 3.208 1.527 0 1.581.435 5.693-.584 2.595-2.183zM69.4 294.64c-1.138 1.591-2.116.842-4.041.994 1.259-1 6.247-6.973 2.042-5.413-1.436 1.72-2.27 5.518-4.775 5.425-2.364 1.644 2.009 1.195 2.625 1.442-.674 7.375 2.3 7.383 1.625 0-.087-.226 1.758-.062 1.825-.109.875 2.983 2.506-2.126.699-2.339z"/><path d="M62.6 290.3c1.958 2.048 5.025 2.535 1.461-.538.776-.628 7.624-5.874 2.916-5.066-.235.695-5.752 4.714-4.377 5.604zM63.3 298.465c-1.26-.02-1.26 2.086 0 2.066 1.258.02 1.258-2.086 0-2.066zM68.786 298.465c-1.26-.02-1.261 2.086 0 2.066 1.26.02 1.26-2.086 0-2.066z"/><path fill="#F2D83A" d="M74.816 295.779c-1.642-1.547-3.478 1.532-1.2 1.881 1.031.06 2.564-1.078 1.2-1.881z"/><path d="M73.668 298.083c-2.549-.053-1.535-4.118.823-2.947 2.288.831 1.003 3.004-.823 2.947zm-.008-2.283c-2.765 1.476 2.491 1.957.944.34a1.958 1.958 0 0 0-.944-.34z"/><path fill="#918DD7" d="M78.7 295.7c1.092-.814 2.734.117 2.062 1.48-.795 1.404-3.94-.522-2.062-1.48z"/><path d="M79.792 298.1c-1.334 0-3.2-1.714-1.272-2.776 2.38-1.706 4.173 2.557 1.272 2.776zm-.9-2.026c-1.285.57 1.165 1.758 1.57.815.327-1-.807-1.343-1.573-.815h.003zM37.882 293.809a4.687 4.687 0 0 0-3.643-4.614c1.015-2.059-2.1-2.259-2.529-.414a.505.505 0 0 0-.707-.111l-.04.032c-.678-2.184-4.056-.757-2.119.905-4.694-.665-5.961 7.507-3.527 9.831 5.02.629 14.758 2.549 12.565-5.629zm-.994-.219c-5.277 1.3-3.592.107-6.134-3.117 2.316-.782 2.663 1.038 3.517 2.7.952-.588-.189-2.322-.778-2.96 1.684-.196 3.23 1.471 3.395 3.377zm-4.76-4.611c.6-1.651 2.774-.313.733.253-.225.01-1.051.142-.733-.253zm-3.138-.451c.457-.844 1.492.084 1.725.685-.54.222-1.815.075-1.725-.685zm-.628 2.153c1.722-.036 2.941 1.379 3.162 3.569-2.824-.305-10.479-.259-3.162-3.569zm-2.944 7.719c-.12-.009-.069-3.695-.11-3.751 4.241 1.017 6.965-1.471 6.332 4.527l-6.222-.776zm11.508-.347-4.308 1.056c-.47-4.757.207-3.83 4.3-4.474-.052.056.167 3.429.008 3.42v-.002z"/><path d="M31.005 283.014c-13.408-.2-13.409 22.191 0 21.986 13.408.2 13.41-22.191 0-21.986zm0 20.556c-11.663.176-11.663-19.3 0-19.124 11.663-.176 11.664 19.302 0 19.124zM101.534 292.674c-.952-1-.21-4.709-3.509-2.041a.59.59 0 0 0-.868 0c-1.2-1.81-4.366-.382-2.725 1.547-.735.255-2.027 1.532-.591 1.737 1.18-.686 2.365-2.11 3.751-2.058.893-.477 5.649 4.064 3.942.815zm-5.041-1.494c-1.622.84-1.412-1.067.026-.016l-.026.016zm2.372.087a1.493 1.493 0 0 1-.2-.1c1.147-.994 1.893.651.2.1z"/><path d="M97.591 292.708c-4.125-.627-4.795 9.065-2.522 10.35 1.04-.321 6.057.89 6.066-1.091-.106-2.919 1.016-9.328-3.544-9.259zm0 1.377a2.277 2.277 0 0 1 2.15 1.683h-4.3a2.273 2.273 0 0 1 2.15-1.683zm2.25 7.749c-3.468.591-5.1 1.114-4.5-3.416 3.559.222 5.029-1.318 4.5 3.416zm0-4.392c-.348-.281-5.341.708-4.5-.7.339.283 5.343-.707 4.5.7z"/><path fill="#FFF" d="M76.5 27.5h447c16.569 0 30 13.431 30 30v175c0 16.569-13.431 30-30 30h-447c-16.569 0-30-13.431-30-30v-175c0-16.569 13.431-30 30-30z"/></svg>