<?xml version="1.0" encoding="utf-8"?>
<!-- Generator: Adobe Illustrator 25.4.1, SVG Export Plug-In . SVG Version: 6.00 Build 0)  -->
<svg version="1.1" id="レイヤー_1" xmlns="http://www.w3.org/2000/svg" xmlns:xlink="http://www.w3.org/1999/xlink" x="0px"
	 y="0px" viewBox="0 0 960 560" style="enable-background:new 0 0 960 560;" xml:space="preserve">
<style type="text/css">
	.st0{fill:#918DD7;}
	.st1{fill:#F2D83A;}
	.st2{fill:#231815;}
	.st3{fill:#FFFFFF;}
</style>
<g>
	<path class="st0" d="M258.89,381.4c0.05,2.42-1.65,4.52-4.02,4.98l-45.35,10.48l-62.66-7.35c-2.55-0.22-4.5-2.32-4.55-4.86
		l-0.71-37.36l67.09,6.55l49.49-8.78L258.89,381.4z"/>
</g>
<g>
	<path class="st0" d="M261.57,380.63c0.05,2.42-1.65,4.52-4.02,4.98l-45.35,10.47l-0.2-0.02l-0.62-42.99l49.48-8.78L261.57,380.63z"
		/>
</g>
<g>
	<path class="st1" d="M258.18,345.05l-49.49,8.78l-67.09-6.55c0-0.22-0.01-0.44-0.01-0.66c0-18.18,14.57-33.1,32.84-33.45
		c0.67-0.01,1.32,0,1.97,0.02l-0.02-0.06l47.62-4.18C242.49,308.61,257.82,326.56,258.18,345.05z"/>
</g>
<g>
	<path class="st2" d="M380.05,195.92c-2.53,1.59-6.65,4.19-7.83,4.5c-0.39-0.94,1.15-2.75,3.92-4.59c6.55-4.5,8.36-10.89,4.72-16.68
		c-0.94-1.5-1.46-2.1-2.3-2.79c0.05-0.05,0.12-0.09,0.21-0.15c0.12-0.07,0.3-0.2,0.47-0.26c0.38-0.12,0.64-0.29,0.87-0.43
		c2.09-1.31,2.11-3.7,1.04-5.39c-2.33-3.71-5.88-1.48-7.04-0.74c-1.37,0.86-2.18,1.97-3.25,3.78c-0.12,0.23-0.2,0.3-0.27,0.35
		c-0.04,0.03-0.2,0.11-0.6,0.13c-2.45,0.3-4.91,1.19-7.23,2.65c-5.67,3.57-9.21,10.68-5,17.38c1.36,2.17,4.21,4.49,7.61,5.01
		c-1.28,2.53-1.21,5.05,0.21,7.31c0.89,1.42,2.63,2.62,4.88,2.62c-1.56,3-1.58,6.04-0.01,8.54c1.21,1.93,4.14,4.24,8.7,4.24
		c2.98,0,6.66-0.99,11.02-3.73c6.9-4.34,13.14-12.28,8.04-20.39C395.56,193.04,389.21,190.16,380.05,195.92z M371.45,189.98
		c-1.72,1.08-3.24,1.4-4.54,0.92c-1.15-0.42-1.84-1.37-2.09-1.76c-1.32-2.1-0.35-4.93,2.27-6.57c2.91-1.83,5.42-1.56,6.87,0.75
		C375.64,186.01,373.77,188.53,371.45,189.98z M390.12,207.54c-1.35,1.67-3.25,2.96-4,3.43c-5.02,3.16-7.87,2.58-8.79,1.12
		c-0.03-0.04-2.25-4.1,4.26-8.2c1.95-1.22,3.96-2.49,5.7-2.95c0.44-0.12,0.84-0.17,1.21-0.17c1.04,0,1.81,0.48,2.45,1.5
		C391.96,203.87,391.69,205.59,390.12,207.54z"/>
	<path class="st2" d="M403.28,155.22c-4.27,1.78-7.55,5-9.22,9.06c-1.69,4.08-1.62,8.71,0.19,13.04c1.85,4.44,5.12,7.78,9.19,9.42
		c1.88,0.75,3.89,1.13,5.93,1.13c2.31,0,4.66-0.48,6.94-1.43c4.3-1.8,7.58-4.97,9.24-8.93c1.69-4.03,1.59-8.7-0.26-13.14
		C421.57,155.47,412.12,151.54,403.28,155.22z M406.88,179.03c-2.09-0.86-3.72-2.6-4.73-5.01c-1.99-4.76-0.21-9.56,4.21-11.41
		c1.1-0.46,2.2-0.68,3.26-0.68c3.28,0,6.23,2.08,7.75,5.73c1.01,2.42,1.1,4.8,0.26,6.88c-0.79,1.96-2.38,3.51-4.47,4.39
		C411.07,179.81,408.84,179.85,406.88,179.03z"/>
	<path class="st2" d="M459.22,159.99c-1.07,0.26-1.98,0.98-2.55,2.01c-1.15,2.03-2.8,4.22-6.27,5.05c-3.5,0.84-7.67-0.69-8.82-5.24
		c0-0.02-0.01-0.03-0.01-0.05c11.24-2.7,12.46-3,14.32-3.51c4.12-1.13,6.2-4.28,5.29-8.02c-0.65-2.72-2.77-5.33-5.65-6.99
		c-3.3-1.89-7.35-2.4-11.39-1.43c-4.17,1-7.64,3.6-9.79,7.31c-2.19,3.8-2.78,8.47-1.65,13.16c1.94,8.07,8.16,13.12,15.54,13.12
		c1.3,0,2.64-0.16,4-0.48c6.98-1.68,9.8-5.09,11.8-8.51c0.62-1.02,0.8-2.09,0.53-3.2C464.01,160.94,461.51,159.45,459.22,159.99z
		 M452.33,151.52c-1.61,0.45-4.32,1.1-6.8,1.7c-2.3,0.55-3.95,0.95-4.87,1.13c0.42-1.4,1.92-4.24,5.34-5.06
		c0.82-0.2,1.54-0.28,2.17-0.28c3.27,0,4.23,2.19,4.25,2.25C452.46,151.43,452.4,151.49,452.33,151.52z"/>
	<path class="st2" d="M501.5,145.91c-0.9-7.86-7.11-10.99-12.53-10.56c-3.03,0.24-5.85,1.45-8.02,3.43
		c-0.28-0.65-0.73-1.2-1.33-1.61c-0.82-0.56-1.88-0.82-2.95-0.74c-2.17,0.17-4.38,1.73-4.17,4.44c0.48,4.48,0.78,7.59,1.05,11.08
		c0.31,3.98,0.56,8.19,0.83,13.82c0.2,2.58,2.28,3.85,4.36,3.85c0.13,0,0.26,0,0.39-0.02c1.65-0.13,2.59-0.88,3.09-1.49
		c0.7-0.86,1.02-2.03,0.88-3.18c-0.48-4.52-0.79-7.76-0.99-10.27c-0.13-1.69-0.24-3.08-0.26-4.18c-0.12-3.58,3.67-6.77,6.88-7.02
		c2.38-0.17,3.84,1.21,4.25,4.04c0.14,0.99,0.36,3.08,0.55,5.52c0.3,3.78,0.6,8.5,0.74,11.05l0.01,0.09
		c0.1,1.25,0.68,2.33,1.64,3.04c0.86,0.64,1.93,0.94,3.05,0.86c2.04-0.16,4.17-1.71,4.02-4.71c-0.04-1.33-0.18-3.08-0.33-5.03
		C502.31,153.86,501.77,148.43,501.5,145.91z"/>
	<path class="st2" d="M533.16,135.8c-2.91-0.25-5.71,0.37-8.22,1.81c0.61-6.9,1.22-12.63,1.42-14.46c0.11-1.27-0.28-2.44-1.09-3.29
		c-0.72-0.76-1.73-1.22-2.85-1.32c-0.73-0.07-2.25,0.11-3.39,1.13c-0.6,0.54-1.33,1.54-1.37,3.23c-0.05,1.97-0.32,5.87-0.76,11.01
		c-0.47,5.49-1.08,11.98-1.62,17.72c-0.43,4.53-0.81,8.6-1.05,11.34c-0.25,2.99,1.77,4.73,3.91,4.92c1.41,0.11,3.11-0.48,4.02-1.99
		c2.28,1.95,5.01,3.07,8.13,3.34c0.52,0.04,1.04,0.07,1.55,0.07c3.92,0,7.56-1.29,10.38-3.7c3.24-2.77,5.25-6.93,5.66-11.71
		c0.4-4.66-0.88-9.06-3.6-12.38C541.58,138.22,537.63,136.18,533.16,135.8z M539.42,153.18c-0.44,5.12-3.96,8.43-8.56,8.02
		c-2.16-0.18-4.05-1.16-5.33-2.75c-1.37-1.7-1.97-3.99-1.75-6.61c0.42-4.91,3.6-8.18,7.85-8.18c0.24,0,0.48,0.01,0.72,0.03
		C536.96,144.1,539.86,148,539.42,153.18z"/>
	<path class="st2" d="M578.32,163.22c0.41-1.73,1.12-3.95,1.47-4.89l0.08-0.26c0.24-0.75,0.45-1.42,0.62-2.15
		c1.76-7.43-1.27-12.29-8.74-14.06c-6.58-1.56-13.39,0.48-14.29,4.26c-0.51,2.15,0.88,4.32,3.1,4.84c1.16,0.27,2.42,0,3.41-0.73
		c0.58-0.4,2.71-1.67,5.65-0.97c2.65,0.62,2.86,2.24,2.56,3.48c-0.16,0.66-0.39,0.92-0.28,0.95c-1.2-0.21-6.8-0.26-11.31,0.21
		c-4.49,0.44-7.73,3.09-8.67,7.06c-0.63,2.67-0.12,5.61,1.41,8.04c1.67,2.66,4.44,4.57,7.8,5.36c3.84,0.91,7.77,0.48,10.46-1.07
		c0.3,0.73,0.63,1.32,1.01,1.8c0.72,0.96,1.65,1.61,2.6,1.83c0.28,0.07,0.56,0.1,0.84,0.1c0.9,0,1.8-0.33,2.62-0.97
		c0.93-0.73,1.61-1.78,1.87-2.88c0.3-1.28,0.05-2.47-0.7-3.34c-0.14-0.17-0.3-0.29-0.47-0.42c-0.6-0.46-1.71-1.3-1.27-4.95
		C578.1,164.12,578.21,163.71,578.32,163.22z M570.44,161.09c0,0.21-0.04,0.57-0.17,1.12c-0.45,1.9-1.24,3.22-2.36,3.92
		c-1.19,0.74-2.84,0.86-4.92,0.37c-1.17-0.28-2.06-0.81-2.58-1.56c-0.43-0.6-0.57-1.3-0.42-1.96c0.34-1.43,2.37-2.15,6.07-2.15
		C567.32,160.84,568.78,160.92,570.44,161.09z"/>
	<path class="st2" d="M622.84,164.94c0.44-1.07,0.45-2.36,0.03-3.53c-0.44-1.24-1.33-2.2-2.44-2.65c-0.8-0.33-1.78-0.37-2.88-0.1
		c-11.32,3.34-13.99,4.14-14.76,4.06c0.84-2.02,6.26-15.14,8.84-21.01c0.4-0.98,0.41-1.98,0.03-2.9c-0.44-1.04-1.38-1.91-2.59-2.4
		c-1.35-0.55-2.7-0.59-3.79-0.1c-0.91,0.4-1.61,1.16-1.96,2.12c-1.23,3.33-3.51,9.11-6.27,15.86c-3.15,7.72-6.78,16.3-9.53,22.52
		c-1.04,2.55,0.49,4.72,2.53,5.56c1.53,0.63,2.71,0.37,3.43,0.05c1.01-0.46,1.82-1.35,2.21-2.46c1.2-3.26,1.89-5.12,2.4-6.39
		c0.61-1.48,1.1-2.69,1.39-3.12c0.05,0.02,0.11,0.04,0.18,0.07c0.25,0.1,0.33,0.18,0.35,0.19c1.29,3.84,5.1,14.07,6.13,16.64
		c0.51,1.22,1.38,2.13,2.44,2.57h0c0.56,0.23,1.15,0.34,1.74,0.34c1.9,0,3.78-1.13,4.51-2.92c0.44-1.09,0.43-2.31-0.03-3.54
		c-0.47-1.23-1.68-3.86-2.96-6.64c-1.19-2.59-2.42-5.26-3.26-7.23c3.93-0.78,7.34-1.58,11.38-2.53
		C621.31,167.08,622.33,166.2,622.84,164.94z"/>
	<path class="st2" d="M647.14,172.78c-3.97-2.39-8.5-3.12-12.77-2.06c-4.28,1.06-7.97,3.86-10.39,7.88
		c-5.04,8.4-2.63,18.15,5.74,23.17c2.84,1.71,5.94,2.58,8.99,2.58c1.24,0,2.48-0.15,3.68-0.44c4.25-1.04,7.95-3.88,10.43-8
		C657.79,187.66,655.35,177.71,647.14,172.78z M643.02,179.64c1.92,1.15,3.25,2.93,3.74,5c0.53,2.22,0.08,4.59-1.28,6.86
		c-2.66,4.43-7.42,5.79-11.57,3.3c-1.95-1.17-3.3-2.95-3.81-5.01c-0.54-2.19-0.12-4.54,1.23-6.79c1.36-2.27,3.25-3.77,5.48-4.34
		c0.64-0.16,1.29-0.25,1.94-0.25C640.22,178.43,641.69,178.84,643.02,179.64z"/>
</g>
<g>
	<path class="st0" d="M797.06,415.91c-1.13,0-2.05-0.92-2.05-2.05v-46.51c0-11.66,9.36-21.01,20.86-21.01
		c11.5,0.01,20.86,9.36,20.86,20.86v46.66c0,1.13-0.92,2.05-2.05,2.05H797.06z"/>
</g>
<g>
	<path class="st1" d="M795,367.36c0-11.66,9.36-21.01,20.86-21.01c11.5,0.01,20.86,9.36,20.86,20.86L795,367.36z"/>
</g>
<g>
	<rect x="795" y="366.17" class="st3" width="41.72" height="13.36"/>
</g>
<line x1="788.93" y1="365.26" x2="842.8" y2="365.26"/>
<line x1="788.93" y1="379.84" x2="842.8" y2="379.84"/>
<g>
	<circle class="st0" cx="436.98" cy="254.7" r="10"/>
	<path d="M436.98,268.38c-7.54,0-13.68-6.14-13.68-13.68c0-7.54,6.14-13.68,13.68-13.68c7.54,0,13.68,6.14,13.68,13.68
		C450.66,262.25,444.52,268.38,436.98,268.38z M436.98,248.39c-3.48,0-6.31,2.83-6.31,6.31c0,3.48,2.83,6.31,6.31,6.31
		s6.31-2.83,6.31-6.31C443.29,251.22,440.46,248.39,436.98,248.39z"/>
</g>
<g>
	<circle class="st1" cx="473.7" cy="254.7" r="10"/>
	<path d="M473.7,268.38c-7.54,0-13.68-6.14-13.68-13.68c0-7.54,6.14-13.68,13.68-13.68s13.68,6.14,13.68,13.68
		C487.38,262.25,481.24,268.38,473.7,268.38z M473.7,248.39c-3.48,0-6.31,2.83-6.31,6.31c0,3.48,2.83,6.31,6.31,6.31
		s6.31-2.83,6.31-6.31C480.01,251.22,477.18,248.39,473.7,248.39z"/>
</g>
<g>
	<path d="M439.78,275.21c-3.61,0-6.98,1.47-9.15,3.58c-0.48,0.63-1.2,0.84-1.92,0.84h-92.64c-3.61,0-6.26,2.31-6.26,5.47
		c0,2.95,2.89,5.47,6.5,5.47h82.78c0.48,0,0.96,0.63,0.72,1.05c-4.09,9.04-11.07,18.93-18.29,27.97c-0.96,1.26-0.48,3.16,1.2,3.58
		c6.5,1.89,12.99-0.21,17.57-4.21c7.46-5.89,12.75-12.83,18.77-21.87c0.24-0.42,0.96-0.84,1.68-0.84
		c6.26-0.42,11.07-5.05,11.07-10.52C451.81,279.84,446.52,275.21,439.78,275.21z"/>
	<path d="M439.46,398.39c-16.36,1.89-32,2.94-41.87,3.15c-18.29,0.21-33.93-0.84-42.35-4c-8.66-2.94-14.92-9.04-15.88-18.72
		c-0.24-3.37-3.37-5.89-7.22-5.89c-4.09,0-7.22,2.73-7.22,6.31c0.72,14.72,7.05,21.84,20.52,27.94c11.07,5.05,28.16,7.78,50.77,7.78
		c10.11,0,22.14-0.63,33.45-1.68c7.46-0.63,11.24,0.88,12.92-8.38c0.24-1.26,0.48-2.73,0.48-3.58
		C443.07,399.65,441.38,398.39,439.46,398.39z"/>
	<path d="M701.99,378.99c-4.19,3.43-10.29,7.81-15.05,10.86c-1.33,0.76-1.53,2.48-0.38,3.43l0.76,0.76
		c4.19,3.81,10.29,4.19,14.86,0.76c3.05-2.29,5.9-4.57,8.57-7.24c2.29-2.48,2.29-6.29-0.19-8.57
		C708.09,376.9,704.47,376.71,701.99,378.99z"/>
	<path d="M765.62,386.99c-4.95-2.67-9.14-4.76-12.38-7.43c-2.29-2.1-5.71-2.1-8.19-0.19c-2.48,1.71-2.86,5.33-0.76,7.62
		c1.91,2.1,4.19,4.19,7.24,6.29c4.19,3.43,10.48,2.67,13.9-1.52l0.95-1.33C767.33,389.28,766.95,387.57,765.62,386.99z"/>
	<path d="M766.76,340.32c0-5.14-4.19-9.52-9.52-9.52c-5.33,0-9.53,4.38-9.53,9.52c0,0.57-0.38,1.14-0.95,1.14h-10.1
		c-0.57,0-0.95-0.57-0.95-0.95v-18.67c0-4-3.43-7.43-7.62-7.43c-4,0-7.43,3.43-7.43,7.43v18.67c0,0.38-0.38,0.95-0.95,0.95h-20.57
		c-2.48,0-4.38,1.91-4.38,4.19c0,2.29,1.91,4.19,4.38,4.19h20.57c0.57,0,0.95,0.57,0.95,0.95v66.29c0,4.19,3.43,7.62,7.43,7.62
		c4.19,0,7.62-3.43,7.62-7.62V350.8c0-0.38,0.38-0.95,0.95-0.95h20.57C762.57,349.85,766.76,345.66,766.76,340.32z"/>
	<path d="M764.24,272.36c-3.62,0-6.67,2.48-7.43,5.71c-0.19,0.57-0.57,0.95-1.14,0.95h-33.11c-0.57,0-0.76-0.38-0.57-0.76
		c0.76-1.91,3.62-6.67,4.19-8.57c1.33-4.95-1.52-8.95-5.52-9.91c-5.33-0.95-8.19,2.86-9.72,6.48c-4.57,11.62-8.95,20.57-19.81,33.72
		c-1.71,2.1-0.95,3.24,1.71,3.62c4.38,0.57,8.57-1.52,11.62-3.62c4.19-3.05,5.91-5.33,11.24-11.62c0.38-0.38,0.76-0.76,1.52-0.76
		h11.24c0.38,0,0.95,0.57,0.95,0.95v8.36c0,4.19,3.24,7.43,7.43,7.43c4.19,0,7.62-3.24,7.62-7.43v-8.36c0-0.38,0.38-0.95,0.95-0.95
		h18.82c4.19,0,7.62-3.43,7.62-7.62C771.87,275.79,768.44,272.36,764.24,272.36z"/>
	<path d="M848.64,272.36c-3.43,0-6.48,2.48-7.24,5.71c-0.19,0.57-0.57,0.95-1.14,0.95h-32.54c-0.38,0-0.76-0.38-0.57-0.76
		c0.95-1.91,3.62-6.67,4.19-8.57c1.52-4.95-1.33-8.95-5.33-9.91c-5.53-0.95-8.38,2.86-9.71,6.48c-4.76,11.62-9.14,20.57-19.81,33.72
		c-1.71,2.1-1.14,3.24,1.71,3.62c4.19,0.57,8.57-1.52,11.43-3.62c4.38-3.05,6.1-5.33,11.24-11.62c0.38-0.38,0.95-0.76,1.53-0.76
		h11.24c0.57,0,0.95,0.57,0.95,0.95v8.36c0,4.19,3.43,7.43,7.62,7.43c4,0,7.43-3.24,7.43-7.43v-8.36c0-0.38,0.38-0.95,0.95-0.95
		h18.26c4.19,0,7.81-3.43,7.81-7.62C856.64,275.79,853.02,272.36,848.64,272.36z"/>
	<path d="M618.84,352.72c-3.02,0.88-4.64,4.05-3.6,7.08c4.71,13.26,3.2,30.77,1.1,45.59c-0.03,0.47-0.51,0.59-1.13,0.55l-13.19-0.9
		c-0.93-0.06-1.32,1-0.74,1.66l21.55,17.68c1.32,1.18,2.58,0.96,3.01-0.73c3.54-13.01,6.17-49.31,0.81-66.66
		C625.62,353.81,622.17,351.86,618.84,352.72z"/>
	<path d="M608.67,392.31c1.58-1.98,1.17-5.69-0.97-7.42c-2.12-1.41-4.9-0.91-6.97,0.63c-4.9,3.61-8.03,5.69-15.77,8.71
		c-1.22,0.39-1.59,1.82-1.05,2.88l1.25,2.25c2.78,4.18,6.51,6.26,11.75,3.1C601.69,399.65,605.07,396.77,608.67,392.31z"/>
	<path d="M663.31,396.53c-7.74-3.02-10.88-5.11-15.77-8.71c-2.08-1.55-4.85-2.05-6.97-0.63c-2.14,1.72-2.55,5.44-0.97,7.42
		c3.59,4.45,6.98,7.34,11.78,10.16c5.24,3.16,8.97,1.08,11.75-3.1l1.25-2.25C664.9,398.35,664.53,396.93,663.31,396.53z"/>
	<path d="M659.66,312.33c-5.33,0-9.53,4.38-9.53,9.52c0,0.57-0.38,1.14-0.95,1.14h-3.24c-0.57,0-0.95-0.57-0.95-0.95v-40.91
		c0-0.57,0.19-1.14,0.76-1.52c1.71-1.71,3.05-4.19,3.05-7.05c0-5.14-4.38-9.52-9.52-9.52c-3.05,0-5.52,1.33-7.24,3.43
		c-0.38,0.38-0.95,0.57-1.53,0.57H587.7c-2.29,0-4.19,1.91-4.19,4.38c0,2.29,1.91,4.19,4.19,4.19h41.29c0.38,0,0.95,0.38,0.95,0.95
		v18.48H591.3c-2.66,0-4.82,2.16-4.82,4.82s2.16,4.82,4.82,4.82h38.65v17.36c0,0.38-0.57,0.95-0.95,0.95h-55.96
		c-2.29,0-4.19,1.91-4.19,4.19s1.91,4.19,4.19,4.19h48.43c-7.03,2.85-14.76,4.66-29.04,7.72c-1.3,0.17-2.06,1.58-1.46,2.64
		l0.67,1.44c1.06,2.63,9.4,4.25,14.9,3.81c11.05-1.03,17.37-1.78,26.6-6.55c3.03-1.58,4.03-5.9,2.48-9.06h24.04
		c5.33,0,9.52-4.19,9.52-9.52C669.18,316.71,664.99,312.33,659.66,312.33z"/>
	<path d="M554.66,351.18c-3.05,0.19-5.14,2.67-4.95,5.52v2.1c0,0.57-0.38,0.95-0.95,0.95h-23.96l-7.58,0.09
		c4.53-4.44,8.89-9.01,13.15-13.66c3.46-3.8,6.87-7.66,10.21-11.56c3.36-3.92,6.62-7.81,9.91-11.93c0.22-0.28,0.46-0.62,0.65-0.93
		c2.51-4.14,1.19-9.54-2.96-12.04c-4.14-2.51-9.54-1.19-12.04,2.96l-0.02,0.03c-2.51,4.15-5.24,8.42-7.96,12.58
		c-2.73,4.18-5.53,8.31-8.38,12.4c-5.39,7.68-11.01,15.2-17.05,22.25H491.9c-3.24,0-5.71,2.48-5.71,5.71c0,3.43,2.48,5.91,5.71,5.91
		h23.37c0.57,0,0.95,0.38,0.95,0.95v40.77c0,4.19,3.24,7.62,7.43,7.62c4.19,0,7.62-3.43,7.62-7.62v-40.77
		c0-0.57,0.38-0.95,0.95-0.95h15.96c0.38,0,0.76,0.38,0.76,0.95v0.76c-0.38,3.24,1.9,6.1,5.14,6.29c3.43,0.19,6.29-2.29,6.67-5.52
		c0.76-5.91,0.76-12,0.19-17.72C560.56,353.28,557.71,350.99,554.66,351.18z"/>
	<path d="M491.68,313.32l21.47,15.07c1.99,1.39,4.76,1.1,6.4-0.77c1.76-2,1.56-5.05-0.45-6.81l-13.89-12.18l38.58-31.01
		c0.2-0.16,0.4-0.34,0.58-0.51c3.49-3.35,3.59-8.9,0.24-12.38c-3.35-3.49-8.9-3.6-12.38-0.24l-40.83,39.26l-0.46,0.45
		c-0.26,0.26-0.5,0.54-0.72,0.85C488.34,307.71,488.99,311.43,491.68,313.32z"/>
	<path d="M498.17,384.51c-4.97,0-9,4.03-9,9s4.03,9,9,9c4.97,0,9-4.03,9-9S503.14,384.51,498.17,384.51z"/>
	<path d="M549.01,384.51c-4.97,0-9,4.03-9,9s4.03,9,9,9c4.97,0,9-4.03,9-9S553.98,384.51,549.01,384.51z"/>
</g>
<g>
	<g>
		<g>
			<path class="st1" d="M604.88,361.1c-1.43-0.91-2.97-1.62-4.35-2.16c-5.08-1.99-10.77-2.27-14.47,2.53
				c-2.27,2.94-2.97,7.58-1.26,10.94c1.77,3.47,5.5,4.87,8.97,5.08c4.7,0.28,16.23-3.88,16.24-8.84
				C610.03,365.34,607.66,362.86,604.88,361.1z"/>
			<path d="M594.24,381.18c-0.23,0-0.46-0.01-0.68-0.02c-5.52-0.32-9.91-2.91-12.04-7.08c-2.31-4.52-1.64-10.64,1.62-14.87
				c4.16-5.39,10.99-6.75,18.73-3.71c1.85,0.73,3.52,1.56,4.97,2.48c5.68,3.6,6.87,7.79,6.86,10.67c-0.01,1.52-0.54,3.83-3.04,6.17
				C606.66,378.6,598.94,381.18,594.24,381.18z M594.17,361.26c-2.19,0-3.93,0.82-5.19,2.45c-1.48,1.92-1.89,5.07-0.89,7.02
				c1.29,2.54,4.56,3,5.91,3.08c4,0.18,11.83-3.38,12.35-5.25c0-1.41-1.16-2.89-3.44-4.34h0c-1.06-0.67-2.31-1.29-3.72-1.85
				C597.31,361.63,595.64,361.26,594.17,361.26z"/>
		</g>
	</g>
	<g>
		<g>
			<path class="st0" d="M640.9,360.41c1.5-0.79,3.09-1.38,4.51-1.8c5.23-1.58,10.92-1.39,14.22,3.69c2.02,3.12,2.35,7.79,0.37,11.01
				c-2.04,3.31-5.88,4.41-9.36,4.34c-4.7-0.1-15.86-5.19-15.47-10.13C635.41,364.22,637.98,361.94,640.9,360.41z"/>
			<path d="M650.98,381.33c-0.14,0-0.29,0-0.43-0.01c-4.61-0.1-12.67-3.42-16.54-7.7c-2.3-2.54-2.64-4.88-2.52-6.4
				c0.22-2.87,1.74-6.95,7.7-10.08l0,0c1.52-0.8,3.26-1.49,5.15-2.07c7.96-2.4,14.66-0.5,18.37,5.21
				c2.91,4.48,3.08,10.63,0.41,14.95C660.73,379.12,656.32,381.33,650.98,381.33z M642.61,363.67L642.61,363.67
				c-2.39,1.26-3.66,2.65-3.78,4.13c0.36,1.83,7.88,6.07,11.88,6.16c1.35,0.05,4.65-0.16,6.14-2.59c1.15-1.86,1-5.03-0.32-7.07
				c-1.88-2.89-5.26-3.61-10.06-2.17C645.02,362.57,643.72,363.09,642.61,363.67z"/>
		</g>
	</g>
</g>
<g>
	<path d="M262.71,343.94c-0.38-20.14-15.63-37.69-33.75-40.21c0.81-1.04,1.49-2.29,1.8-3.71c0.42-1.88,0.18-3.84-0.52-5.47
		c-0.71-1.64-1.79-3.05-3.19-4.11c-1.43-1.08-3.08-1.72-4.7-1.93c-3.24-0.48-6.37,0.42-8.84,2.03c-2.46,1.6-4.31,3.71-5.73,5.94
		c-0.62,0.95-1.35,2.03-1.99,3.17c-0.09,0.15-0.18,0.32-0.26,0.47c-0.91-1.15-2.31-1.89-3.9-1.82c-1.15,0.02-2.19,0.46-3.02,1.14
		c-0.63-0.99-1.31-1.92-1.89-2.75c-1.5-2.18-3.43-4.22-5.95-5.72c-2.52-1.51-5.68-2.29-8.91-1.69c-1.61,0.28-3.23,0.98-4.62,2.11
		c-1.37,1.11-2.39,2.57-3.04,4.23c-0.63,1.66-0.79,3.63-0.31,5.49c0.47,1.83,1.56,3.35,2.73,4.48c0.75,0.69,1.54,1.26,2.36,1.73
		l-3.01,0.26c-0.12,0.01-0.24,0.05-0.35,0.07c-0.43-0.01-0.85-0.05-1.29-0.05c-20.96,0.4-37.68,17.78-37.28,38.74l0.71,37.36
		c0.09,4.88,3.83,8.88,8.55,9.28l62.66,7.35c0.15,0.02,0.29,0.02,0.44,0.03c0.03,0,0.06,0.01,0.08,0.01c0.02,0,0.05-0.01,0.07-0.01
		c0.29,0,0.58-0.04,0.86-0.1c0.03-0.01,0.06,0,0.09-0.01l45.2-10.44c4.55-0.88,7.79-4.88,7.7-9.52L262.71,343.94z M253.5,342.03
		l-40.56,5.61c-1.36-14.33-7.3-25.83-16.27-32.77l16.05-1.41c6.08,4.01,12.78,10.88,13.28,21.84c0.08,1.75,1.52,3.12,3.26,3.12
		c0.05,0,0.1,0,0.15,0c1.8-0.08,3.2-1.61,3.12-3.41c-0.39-8.6-4.02-16.23-10.48-22.37l2.2-0.19c0.1,0,0.19,0,0.28,0
		C238.87,312.46,252.13,326.2,253.5,342.03z M209.4,301.85c0.62-0.91,1.32-1.77,2.1-2.78c1.35-1.68,2.92-3.12,4.66-3.92
		c1.69-0.79,3.56-0.98,5.07-0.57c0.75,0.21,1.38,0.53,1.85,0.94c0.5,0.42,0.92,0.98,1.15,1.55c0.26,0.57,0.31,1.11,0.23,1.59
		c-0.09,0.52-0.35,1.09-0.84,1.69c-1,1.22-2.74,2.29-4.69,2.97c-0.88,0.32-1.8,0.56-2.74,0.73l-3.15,0.28
		c-0.09,0-0.18,0.01-0.27,0.01c-0.53-0.03-1.06-0.06-1.58-0.13c-0.5-0.06-1.21-0.17-1.65-0.25c-0.48-0.08-0.87-0.21-1.05-0.29
		c0.03-0.14,0.09-0.32,0.17-0.5C208.84,302.76,209.11,302.31,209.4,301.85z M196.36,304.09
		C196.36,304.09,196.36,304.09,196.36,304.09C196.37,304.12,196.37,304.13,196.36,304.09z M180.33,297.92
		c0.21-0.58,0.61-1.16,1.09-1.6c0.45-0.43,1.07-0.77,1.81-1.01c1.49-0.46,3.36-0.34,5.08,0.38c1.76,0.73,3.4,2.1,4.81,3.73
		c0.82,0.98,1.55,1.81,2.21,2.69c0.31,0.44,0.59,0.88,0.79,1.29c0.09,0.17,0.15,0.35,0.19,0.49c-0.18,0.09-0.57,0.23-1.04,0.33
		c-0.43,0.1-1.14,0.23-1.64,0.32c-0.52,0.09-1.05,0.15-1.58,0.19c-2.11,0.13-4.23-0.15-6.19-0.78c-1.98-0.61-3.76-1.61-4.8-2.79
		c-0.52-0.58-0.8-1.14-0.91-1.65C180.06,299.04,180.09,298.5,180.33,297.92z M174.51,316.68c0.19,0,0.38-0.01,0.58-0.01
		c15.62,0,26.7,12.25,28.72,31.11l-57.45-5.61C148.05,328.06,159.92,316.96,174.51,316.68z M147.24,383.96
		c-0.22-0.02-0.4-0.2-0.4-0.43l-0.62-32.26l58.01,5.67l0.65,33.78L147.24,383.96z M253.85,380.93l-39.91,9.21l-0.64-33.39l40.48-5.6
		l0.58,29.31C254.36,380.68,254.22,380.86,253.85,380.93z"/>
	<path d="M199,249.87c-52.82,0-95.79,42.97-95.79,95.79s42.97,95.79,95.79,95.79s95.79-42.97,95.79-95.79S251.83,249.87,199,249.87z
		 M199,428.99c-45.94,0-83.32-37.38-83.32-83.32s37.38-83.32,83.32-83.32s83.32,37.38,83.32,83.32S244.95,428.99,199,428.99z"/>
</g>
<g>
	<path d="M852.4,334.05c-0.69-0.46-1.43-0.83-2.11-1.3c-0.46-0.32-0.96-0.6-1.44-0.89c-1.24-0.74-2.48-1.44-3.72-2.12
		c0.75-0.61,1.47-1.31,2.07-2.17c1.42-2.01,2.08-4.43,2.07-6.63c-0.05-2.22-0.6-4.33-1.72-6.19c-1.14-1.91-2.73-3.38-4.43-4.35
		c-3.4-1.98-7.19-2.23-10.47-1.53c-3.26,0.71-5.95,2.19-8.25,3.85c-0.87,0.65-2.01,1.44-3.08,2.32c-0.46,0.36-0.93,0.76-1.43,1.22
		c-1.03-1.03-2.45-1.68-4.02-1.68s-2.99,0.64-4.02,1.68c-0.49-0.46-0.96-0.86-1.43-1.22c-1.08-0.89-2.21-1.67-3.08-2.32
		c-2.3-1.67-4.99-3.14-8.25-3.85c-3.28-0.7-7.07-0.45-10.47,1.53c-1.7,0.96-3.29,2.44-4.43,4.35c-1.12,1.86-1.67,3.97-1.72,6.19
		c-0.01,2.2,0.65,4.62,2.07,6.63c0.6,0.85,1.32,1.56,2.07,2.17c-1.25,0.67-2.49,1.38-3.72,2.12c-0.48,0.29-0.98,0.56-1.44,0.89
		c-0.68,0.47-1.42,0.83-2.11,1.3c-2.15,1.48-4.49,3.57-4.29,6.44c0.23,3.28,3.33,4.21,6.08,4.39c1.71,0.12,3.22-0.47,4.38-1.73
		c3.48-3.79,7.01-7.25,10.56-10.4c1.21-0.03,2.38-0.17,3.48-0.36c2.99-0.55,5.79-1.67,8.29-3.2c0.63-0.38,1.24-0.78,1.83-1.22
		l0.78-0.59l0.86-0.67c0.34-0.27,0.71-0.59,1.1-0.98c0.96,0.75,2.15,1.21,3.47,1.21s2.51-0.46,3.47-1.21
		c0.39,0.39,0.76,0.7,1.1,0.98l0.86,0.67l0.78,0.59c0.59,0.44,1.2,0.83,1.83,1.22c2.5,1.53,5.3,2.64,8.29,3.2
		c1.1,0.19,2.27,0.33,3.48,0.36c3.55,3.16,7.08,6.61,10.56,10.4c1.16,1.27,2.68,1.85,4.38,1.73c2.76-0.19,5.85-1.11,6.08-4.39
		C856.89,337.61,854.55,335.53,852.4,334.05z M805.7,321.03l-0.33,0.17c-0.43,0.22-0.87,0.41-1.32,0.59
		c-1.8,0.68-3.71,0.98-5.53,0.94c-1.85-0.02-3.52-0.46-4.32-1.01c-0.39-0.25-0.46-0.46-0.45-0.5c0.05,0.02,0.02,0,0.05-0.21
		c-0.02-0.2,0.06-0.5,0.14-0.74c0.04-0.2,0.22-0.49,0.54-0.83c0.67-0.67,1.94-1.32,3.44-1.39c1.56-0.11,3.41,0.4,5.18,1.31
		c1.11,0.59,2,1.04,2.84,1.53L805.7,321.03z M827.68,321.79c-0.44-0.18-0.89-0.37-1.32-0.59l-0.33-0.17l-0.25-0.14
		c0.84-0.49,1.73-0.94,2.84-1.53c1.77-0.91,3.63-1.42,5.18-1.31c1.5,0.07,2.77,0.72,3.44,1.39c0.33,0.34,0.5,0.63,0.54,0.83
		c0.09,0.23,0.16,0.54,0.14,0.74c0.03,0.21,0,0.23,0.05,0.21c0.02,0.04-0.05,0.25-0.45,0.5c-0.8,0.55-2.47,0.98-4.32,1.01
		C831.38,322.77,829.48,322.47,827.68,321.79z"/>
	<path d="M815.87,334.34C797.72,334.33,783,349.05,783,367.2v0.16v47.63c0,5.33,4.38,9.53,9.52,9.53h45.66
		c5.25,0,9.99-4.28,10.53-9.5l0-0.02V367.2C848.72,349.06,834.02,334.35,815.87,334.34z M815.87,346.34
		c9.35,0,17.27,6.18,19.92,14.67h-39.81C798.64,352.48,806.55,346.34,815.87,346.34z M836.72,413.86c0,1.13-0.92,2.05-2.05,2.05
		h-37.62c-1.13,0-2.05-0.92-2.05-2.05V384.1h41.72V413.86z M836.72,375.59H795v-6.08h41.72V375.59z"/>
</g>
</svg>
